<?xml version="1.0" standalone="no"?>
<!DOCTYPE svg PUBLIC "-//W3C//DTD SVG 20010904//EN"
 "http://www.w3.org/TR/2001/REC-SVG-20010904/DTD/svg10.dtd">
<svg version="1.0" xmlns="http://www.w3.org/2000/svg"
 width="512.000000pt" height="512.000000pt" viewBox="0 0 512.000000 512.000000"
 preserveAspectRatio="xMidYMid meet">
<metadata>
Created by potrace 1.11, written by Peter Selinger 2001-2013
</metadata>
<g transform="translate(0.000000,512.000000) scale(0.100000,-0.100000)"
fill="#000000" stroke="none">
<path d="M1725 4200 c-11 -5 -38 -9 -61 -9 -24 -1 -156 -41 -320 -97 -153 -53
-310 -106 -349 -119 -38 -13 -216 -74 -395 -135 -179 -61 -361 -124 -405 -138
-94 -32 -148 -78 -165 -142 -23 -86 -23 -89 100 -445 67 -191 277 -809 337
-985 25 -74 52 -148 60 -164 21 -40 70 -85 115 -106 53 -23 103 -18 229 26 57
20 255 88 439 151 184 63 416 142 515 176 l180 61 545 0 545 0 195 -67 c1045
-356 1075 -366 1126 -355 26 6 63 20 80 32 41 26 87 97 107 161 9 28 84 250
167 495 311 913 310 910 305 967 -6 75 -37 130 -95 166 -14 8 -99 40 -190 70
-214 72 -1146 388 -1229 417 -35 12 -91 27 -125 33 -76 13 -1682 19 -1711 7z"/>
<path d="M1035 1684 c-184 -50 -281 -220 -244 -428 21 -122 100 -216 216 -258
83 -30 216 -30 303 0 l65 22 1 73 1 73 -46 -22 c-145 -72 -279 -44 -338 70
-21 41 -28 143 -13 205 14 60 72 125 122 139 58 16 151 7 213 -22 32 -14 58
-26 60 -26 1 0 2 31 2 70 l0 70 -56 21 c-76 28 -206 34 -286 13z"/>
<path d="M3936 1683 c-66 -19 -102 -48 -127 -101 -27 -54 -28 -145 -5 -191 24
-46 86 -86 163 -106 149 -38 174 -47 187 -73 20 -38 3 -77 -41 -95 -63 -25
-173 -8 -305 48 -16 6 -18 0 -18 -68 l0 -75 82 -22 c169 -45 328 -30 407 39
55 48 74 195 34 263 -32 56 -115 98 -223 114 -118 18 -168 63 -127 117 33 46
194 42 310 -8 15 -6 17 0 17 68 l0 75 -67 13 c-99 18 -229 19 -287 2z"/>
<path d="M1696 1661 c-8 -14 -41 -101 -75 -193 -33 -92 -86 -234 -116 -314
-30 -81 -55 -152 -55 -158 0 -7 28 -10 82 -9 46 0 86 2 89 2 3 1 14 28 25 61
10 33 23 60 29 61 5 1 70 2 142 3 l133 1 23 -64 24 -64 64 0 c35 1 76 1 90 2
l26 1 -63 168 c-34 92 -93 248 -129 347 l-67 181 -104 1 c-103 0 -105 0 -118
-26z m162 -278 c23 -71 42 -131 42 -134 0 -8 -167 -5 -175 3 -7 6 77 258 85
258 3 0 25 -57 48 -127z"/>
<path d="M2275 1682 c-3 -3 -5 -160 -5 -349 0 -267 3 -343 13 -344 15 -1 137
-1 155 0 9 1 12 34 12 131 l0 130 49 0 c68 0 90 -22 152 -148 30 -59 54 -109
56 -111 3 -4 193 -8 193 -3 0 7 -131 259 -142 273 -8 9 -28 25 -46 36 -32 20
-33 21 -10 27 92 25 140 171 87 266 -22 38 -69 71 -124 85 -33 9 -382 15 -390
7z m297 -131 c66 -4 80 -135 18 -161 -29 -12 -106 -19 -127 -12 -9 3 -13 31
-13 91 l0 88 53 -3 c28 -1 60 -2 69 -3z"/>
<path d="M3010 1616 c-1 -60 -1 -484 0 -596 l0 -36 83 2 c45 1 125 3 177 4
257 7 388 120 395 340 4 146 -63 259 -190 316 -69 31 -105 36 -297 39 l-168 2
0 -71z m367 -90 c72 -37 109 -118 100 -219 -10 -115 -84 -177 -217 -182 l-70
-3 0 216 0 215 78 -6 c44 -2 93 -12 109 -21z"/>
</g>
</svg>
